<?xml version="1.0" standalone="no"?>
<!DOCTYPE svg PUBLIC "-//W3C//DTD SVG 20010904//EN"
 "http://www.w3.org/TR/2001/REC-SVG-20010904/DTD/svg10.dtd">
<svg version="1.0" xmlns="http://www.w3.org/2000/svg"
 width="256.000000pt" height="256.000000pt" viewBox="0 0 256.000000 256.000000"
 preserveAspectRatio="xMidYMid meet">
<metadata>
Created by potrace 1.11, written by Peter Selinger 2001-2013
</metadata>
<g transform="translate(0.000000,256.000000) scale(0.100000,-0.100000)"
fill="#000000" stroke="none">
<path d="M1145 2553 c-16 -2 -74 -13 -129 -24 -500 -104 -882 -491 -991 -1005
-22 -100 -26 -322 -9 -434 53 -350 252 -666 543 -865 163 -110 357 -186 541
-212 100 -14 329 -8 420 11 542 111 948 538 1025 1076 94 665 -341 1286 -1000
1430 -94 20 -314 33 -400 23z m305 -46 c321 -51 596 -207 788 -447 74 -92 79
-99 131 -193 67 -121 124 -296 139 -427 8 -78 8 -244 -1 -320 -16 -135 -70
-303 -136 -424 -230 -416 -650 -661 -1115 -651 -134 4 -165 8 -287 39 -412
104 -752 431 -873 838 -13 46 -27 99 -30 118 -3 19 -9 46 -12 60 -3 14 -7 82
-8 151 -4 134 8 236 43 364 130 474 558 840 1041 892 30 3 57 7 59 9 4 4 228
-4 261 -9z"/>
<path d="M682 1881 c-112 -39 -181 -131 -190 -253 -6 -84 10 -146 56 -216 46
-71 103 -118 249 -210 201 -125 254 -183 258 -281 7 -150 -84 -253 -224 -257
-152 -4 -252 71 -311 233 -37 102 -45 83 -45 -97 0 -156 1 -160 21 -160 11 0
37 15 56 34 l35 34 39 -24 c63 -39 132 -54 226 -51 70 3 95 8 139 31 72 37
114 79 147 146 24 48 27 67 27 150 0 84 -3 102 -28 152 -34 70 -115 151 -208
209 -266 166 -314 212 -323 309 -9 100 31 177 112 217 44 21 62 25 106 20 119
-12 206 -97 255 -249 7 -21 18 -38 24 -38 9 0 12 44 12 160 0 151 -1 160 -19
160 -11 0 -36 -18 -56 -39 l-38 -39 -34 23 c-81 55 -190 69 -286 36z"/>
<path d="M1190 1871 c0 -5 23 -14 50 -21 28 -7 54 -19 59 -29 4 -9 88 -281
187 -604 135 -444 182 -587 193 -585 15 3 23 31 266 928 36 135 71 250 78 256
7 6 33 19 60 28 26 10 47 22 47 27 0 5 -58 9 -131 9 -145 0 -160 -9 -71 -43
39 -15 51 -24 47 -36 -3 -9 -37 -133 -75 -276 -145 -537 -164 -598 -172 -579
-15 40 -268 874 -268 886 0 4 6 8 13 8 6 0 29 5 50 11 76 21 36 29 -148 29
-103 0 -185 -4 -185 -9z"/>
</g>
</svg>
