<svg fill="#f6ab95" height="479pt" viewBox="-32 0 479 479.95809" width="479pt" xmlns="http://www.w3.org/2000/svg"><path d="m172.878906 294.261719c.097656.046875.160156.128906.257813.167969l.496093.199218c2.980469 1.351563 6.03125 2.5625 9.148438 3.632813.335938.113281.65625.257812.992188.359375 3.414062 1.144531 6.886718 2.105468 10.402343 2.882812h.09375c7.292969 1.613282 14.738281 2.4375 22.210938 2.453125h.816406c3.507813-.03125 6.972656-.226562 10.398437-.589843.550782-.066407 1.085938-.183594 1.601563-.257813 3.09375-.382813 6.15625-.863281 9.167969-1.511719.484375-.113281.964844-.261718 1.453125-.382812 3.113281-.722656 6.167969-1.554688 9.160156-2.554688.394531-.125.800781-.285156 1.167969-.421875 3.074218-1.0625 6.082031-2.25 9.007812-3.585937.167969-.070313.335938-.117188.503906-.199219.167969-.078125.160157-.117187.257813-.167969 44.335937-20.472656 68.457031-69.039062 57.976563-116.738281-10.480469-47.699219-52.738282-81.679687-101.578126-81.679687-48.835937 0-91.09375 33.980468-101.574218 81.679687-10.484375 47.699219 13.636718 96.265625 57.976562 116.738281zm75.601563-12.398438-.546875.199219c-2.300782.886719-4.636719 1.695312-7 2.398438-.320313.097656-.65625.160156-.972656.25-2.339844.65625-4.691407 1.230468-7.089844 1.6875-.191406.039062-.390625.054687-.59375.09375-5.3125.96875-10.703125 1.457031-16.101563 1.464843h-.226562c-2.664063 0-5.332031-.136719-8-.40625-1.789063-.175781-3.566407-.480469-5.34375-.800781-.949219-.152344-1.917969-.257812-2.855469-.441406-2.085938-.40625-4.144531-.925782-6.199219-1.488282-.558593-.148437-1.121093-.269531-1.671875-.429687-2.265625-.664063-4.496094-1.441406-6.703125-2.289063l-.695312-.238281v-1.90625c0-4.417969 3.582031-8 8-8h48c4.417969 0 8 3.582031 8 8zm-32-169.90625c39.128906-.042969 73.578125 25.777344 84.515625 63.351563 10.9375 37.570312-4.273438 77.847656-37.316406 98.808594-2.671876-10.644532-12.222657-18.125-23.199219-18.160157h-48c-10.976563.035157-20.53125 7.515625-23.203125 18.160157-33.039063-20.960938-48.25-61.238282-37.316406-98.808594 10.9375-37.574219 45.386718-63.394532 84.519531-63.351563zm0 0"/><path d="m17.710938 222.199219c8.921874 80.230469 65.253906 147.210937 142.769531 169.757812v16c0 13.257813 10.742187 24 24 24h8v40c0 4.417969 3.582031 8 8 8h32c4.417969 0 8-3.582031 8-8v-8h24c0 4.417969 3.582031 8 8 8s8-3.582031 8-8v-16c0-4.417969-3.582031-8-8-8s-8 3.582031-8 8h-24v-16h8c13.253906 0 24-10.742187 24-24v-16c71.652343-20.914062 125.699219-79.992187 140.164062-153.222656 14.46875-73.230469-13.046875-148.421875-71.367187-195.015625-63.199219-50.472656-150.578125-57.910156-221.402344-18.84375-70.820312 39.066406-111.140625 116.941406-102.164062 197.324219zm206.769531 241.757812h-16v-32h16zm32-56c0 4.417969-3.582031 8-8 8h-64c-4.417969 0-8-3.582031-8-8v-12.085937c13.03125 2.695312 26.300781 4.078125 39.605469 4.128906 7.554687 0 15.101562-.421875 22.609374-1.265625 6.007813-.671875 11.925782-1.601563 17.785157-2.824219zm-183.761719-322.832031c30.378906-38.222656 74.78125-62.707031 123.320312-68 6.90625-.777344 13.851563-1.167969 20.800782-1.167969 70.648437.132813 134.984375 40.707031 165.546875 104.402344 30.5625 63.699219 21.957031 139.269531-22.148438 194.460937-63.429687 79.398438-179.210937 92.34375-258.605469 28.914063-79.398437-63.429687-92.34375-179.210937-28.914062-258.609375zm0 0"/><path d="m216.480469 79.957031c13.253906 0 24-10.742187 24-24 0-13.253906-10.746094-24-24-24-13.257813 0-24 10.746094-24 24 0 13.257813 10.742187 24 24 24zm0-32c4.417969 0 8 3.582031 8 8s-3.582031 8-8 8-8-3.582031-8-8 3.582031-8 8-8zm0 0"/><path d="m161.40625 90.933594c10.570312-.015625 19.882812-6.945313 22.9375-17.0625 3.054688-10.117188-.867188-21.042969-9.660156-26.90625-8.792969-5.863282-20.386719-5.28125-28.550782 1.425781-8.167968 6.710937-10.980468 17.972656-6.933593 27.734375 3.691406 9.003906 12.476562 14.863281 22.207031 14.808594zm-3.09375-31.390625c4.082031-1.6875 8.757812.253906 10.445312 4.335937 1.6875 4.078125-.246093 8.753906-4.328124 10.445313-4.082032 1.691406-8.761719-.246094-10.449219-4.332031-1.691407-4.082032.25-8.761719 4.332031-10.449219zm0 0"/><path d="m97.679688 115.15625c9.371093 9.375 24.566406 9.371094 33.941406 0 9.371094-9.371094 9.371094-24.566406 0-33.941406-9.375-9.371094-24.570313-9.371094-33.941406 0-4.511719 4.496094-7.046876 10.601562-7.046876 16.972656 0 6.367188 2.535157 12.476562 7.046876 16.96875zm11.3125-22.628906c3.121093-3.125 8.1875-3.125 11.3125-.003906 3.125 3.125 3.125 8.191406 0 11.316406s-8.191407 3.125-11.3125 0c-1.511719-1.503906-2.359376-3.542969-2.359376-5.671875 0-2.132813.847657-4.171875 2.359376-5.675781zm0 0"/><path d="m74.253906 167.039062c2.902344 1.210938 6.011719 1.832032 9.152344 1.832032 10.578125.019531 19.917969-6.886719 23.003906-17 3.082032-10.117188-.816406-21.058594-9.605468-26.945313-8.789063-5.882812-20.390626-5.320312-28.570313 1.382813-8.175781 6.707031-11.003906 17.976562-6.957031 27.746094 2.414062 5.890624 7.089844 10.566406 12.976562 12.984374zm1.792969-25.234374c.8125-1.957032 2.367187-3.515626 4.328125-4.328126 1.960938-.820312 4.167969-.820312 6.128906 0 4.078125 1.695313 6.015625 6.375 4.324219 10.453126-1.691406 4.082031-6.371094 6.019531-10.453125 4.328124-4.082031-1.691406-6.019531-6.371093-4.328125-10.453124zm0 0"/><path d="m72.480469 223.957031c13.253906 0 24-10.742187 24-24 0-13.253906-10.746094-24-24-24-13.257813 0-24 10.746094-24 24 0 13.257813 10.742187 24 24 24zm0-32c4.417969 0 8 3.582031 8 8s-3.582031 8-8 8-8-3.582031-8-8 3.582031-8 8-8zm0 0"/><path d="m105.613281 245.894531c-5.074219-12.246093-19.113281-18.058593-31.359375-12.984375-12.242187 5.074219-18.054687 19.113282-12.980468 31.359375 5.074218 12.246094 19.113281 18.058594 31.359374 12.984375 12.226563-5.089844 18.03125-19.113281 12.980469-31.359375zm-14.78125 12.246094c-1.390625 3.34375-4.847656 5.339844-8.4375 4.867187-3.585937-.476562-6.410156-3.296874-6.882812-6.886718-.472657-3.589844 1.519531-7.046875 4.863281-8.433594 2.992188-1.242188 6.433594-.558594 8.722656 1.730469 2.292969 2.289062 2.976563 5.734375 1.734375 8.722656zm0 0"/><path d="m131.632812 284.832031c-9.375-9.375-24.570312-9.371093-33.941406 0-9.371094 9.371094-9.371094 24.566407 0 33.941407 9.371094 9.371093 24.566406 9.371093 33.941406 0 9.367188-9.371094 9.367188-24.5625 0-33.933594zm-11.320312 22.621094c-3.125 3.125-8.191406 3.125-11.316406.003906-3.125-3.125-3.125-8.191406 0-11.316406s8.191406-3.125 11.316406 0c3.121094 3.125 3.121094 8.191406 0 11.3125zm0 0"/><path d="m170.558594 310.839844c-12.246094-5.074219-26.285156.738281-31.359375 12.980468-5.074219 12.246094.738281 26.285157 12.984375 31.359376 12.246094 5.078124 26.285156-.738282 31.359375-12.980469 2.457031-5.878907 2.46875-12.496094.03125-18.382813-2.4375-5.886718-7.121094-10.558594-13.015625-12.976562zm-1.800782 25.238281c-1.460937 3.523437-5.210937 5.523437-8.953124 4.777344-3.738282-.746094-6.433594-4.03125-6.433594-7.84375 0-3.816407 2.695312-7.101563 6.433594-7.847657 3.742187-.746093 7.492187 1.253907 8.953124 4.777344.824219 1.964844.824219 4.179688 0 6.144532zm0 0"/><path d="m216.480469 319.957031c-13.257813 0-24 10.746094-24 24 0 13.257813 10.742187 24 24 24 13.253906 0 24-10.742187 24-24 0-13.253906-10.746094-24-24-24zm0 32c-4.417969 0-8-3.582031-8-8s3.582031-8 8-8 8 3.582031 8 8-3.582031 8-8 8zm0 0"/><path d="m280.765625 310.839844c-10.578125-4.382813-22.777344-.679688-29.136719 8.839844-6.359375 9.519531-5.109375 22.207031 2.984375 30.304687 8.097657 8.09375 20.785157 9.34375 30.304688 2.984375s13.222656-18.558594 8.839843-29.136719c-2.429687-5.890625-7.105468-10.566406-12.992187-12.992187zm-1.789063 25.238281c-1.460937 3.527344-5.210937 5.53125-8.953124 4.785156-3.742188-.742187-6.441407-4.027343-6.441407-7.84375 0-3.816406 2.699219-7.105469 6.441407-7.847656 3.742187-.746094 7.492187 1.257813 8.953124 4.785156.820313 1.957031.820313 4.164063 0 6.121094zm0 0"/><path d="m301.328125 284.820312c-9.371094 9.375-9.367187 24.570313.007813 33.9375 9.371093 9.371094 24.5625 9.371094 33.9375 0 9.371093-9.367187 9.375-24.5625.003906-33.9375-4.484375-4.53125-10.597656-7.082031-16.972656-7.082031-6.378907 0-12.492188 2.550781-16.976563 7.082031zm22.640625 22.632813c-1.503906 1.503906-3.539062 2.347656-5.660156 2.347656-2.125 0-4.160156-.84375-5.660156-2.347656-2.289063-2.289063-2.972657-5.730469-1.734376-8.71875 1.242188-2.992187 4.160157-4.9375 7.398438-4.9375 3.234375 0 6.148438 1.949219 7.386719 4.941406 1.238281 2.988281.554687 6.429688-1.730469 8.714844zm0 0"/><path d="m358.703125 232.910156c-12.246094-5.074218-26.285156.738282-31.359375 12.984375-5.074219 12.246094.738281 26.285157 12.984375 31.359375 12.246094 5.074219 26.285156-.738281 31.359375-12.984375 5.046875-12.246093-.757812-26.265625-12.984375-31.359375zm-1.792969 25.230469c-.8125 1.960937-2.367187 3.515625-4.328125 4.328125-4.082031 1.695312-8.761719-.242188-10.453125-4.328125-1.386718-3.34375-.351562-7.203125 2.519532-9.40625 2.875-2.203125 6.867187-2.203125 9.738281 0 2.875 2.203125 3.910156 6.0625 2.523437 9.40625zm0 0"/><path d="m336.480469 199.957031c0 13.257813 10.742187 24 24 24 13.253906 0 24-10.742187 24-24 0-13.253906-10.746094-24-24-24-13.257813 0-24 10.746094-24 24zm32 0c0 4.417969-3.582031 8-8 8s-8-3.582031-8-8 3.582031-8 8-8 8 3.582031 8 8zm0 0"/><path d="m327.34375 154.054688c3.730469 8.972656 12.492188 14.816406 22.207031 14.816406 9.699219-.019532 18.4375-5.875 22.136719-14.84375 3.703125-8.964844 1.640625-19.277344-5.21875-26.136719-6.863281-6.855469-17.179688-8.90625-26.140625-5.195313-12.230469 5.089844-18.035156 19.113282-12.984375 31.359376zm14.785156-12.25c1.234375-2.992188 4.152344-4.941407 7.390625-4.941407 1.050781.003907 2.09375.210938 3.0625.613281 4.082031 1.695313 6.019531 6.375 4.324219 10.453126-1.691406 4.082031-6.371094 6.019531-10.449219 4.328124-4.082031-1.691406-6.019531-6.371093-4.328125-10.453124zm0 0"/><path d="m301.328125 115.15625c9.375 9.371094 24.566406 9.367188 33.9375-.003906 9.367187-9.375 9.367187-24.566406 0-33.9375-9.371094-9.375-24.5625-9.375-33.9375-.007813-9.359375 9.382813-9.359375 24.566407 0 33.949219zm11.320313-22.628906c3.121093-3.125 8.1875-3.125 11.3125-.003906 3.125 3.125 3.125 8.191406 0 11.316406s-8.191407 3.125-11.3125 0c-1.511719-1.503906-2.359376-3.542969-2.359376-5.671875 0-2.132813.847657-4.171875 2.359376-5.675781zm0 0"/><path d="m262.398438 89.109375c12.246093 5.074219 26.285156-.738281 31.359374-12.984375 5.074219-12.242188-.738281-26.285156-12.984374-31.359375-12.242188-5.074219-26.285157.738281-31.359376 12.984375-2.476562 5.875-2.496093 12.5-.058593 18.390625 2.441406 5.894531 7.136719 10.5625 13.042969 12.96875zm1.800781-25.230469c1.460937-3.527344 5.210937-5.527344 8.953125-4.78125 3.742187.742188 6.4375 4.027344 6.4375 7.84375s-2.695313 7.101563-6.4375 7.847656c-3.742188.746094-7.492188-1.257812-8.953125-4.78125-.824219-1.960937-.824219-4.171874 0-6.128906zm0 0"/><path d="m344.480469 391.957031h16v16h-16zm0 0"/><path d="m368.480469 367.957031h16v16h-16zm0 0"/><path d="m368.480469 415.957031h16v16h-16zm0 0"/><path d="m392.480469 391.957031h16v16h-16zm0 0"/><path d="m16.480469 23.957031h16v16h-16zm0 0"/><path d="m16.480469 55.957031h16v16h-16zm0 0"/><path d="m32.480469 39.957031h16v16h-16zm0 0"/><path d="m.480469 39.957031h16v16h-16zm0 0"/></svg>