<?xml version="1.0" encoding="UTF-8"?>
<!DOCTYPE svg PUBLIC "-//W3C//DTD SVG 1.1//EN" "http://www.w3.org/Graphics/SVG/1.1/DTD/svg11.dtd">
<!-- Creator: CorelDRAW X7 -->
<svg xmlns="http://www.w3.org/2000/svg" xml:space="preserve" width="119px" height="38px" version="1.1" style="shape-rendering:geometricPrecision; text-rendering:geometricPrecision; image-rendering:optimizeQuality; fill-rule:evenodd; clip-rule:evenodd"
viewBox="0 0 4315 1379"
 xmlns:xlink="http://www.w3.org/1999/xlink">
 <defs>
  <style type="text/css">
   <![CDATA[
    .fil4 {fill:#FEFEFE}
    .fil3 {fill:#E3E3E3}
    .fil0 {fill:#FEFEFE;fill-rule:nonzero}
    .fil1 {fill:#FEFEFE;fill-rule:nonzero;fill-opacity:0.301961}
    .fil2 {fill:#FEFEFE;fill-rule:nonzero;fill-opacity:0.501961}
   ]]>
  </style>
 </defs>
 <g id="Слой_x0020_1">
  <metadata id="CorelCorpID_0Corel-Layer"/>
  <g id="_1597469681440">
   <path class="fil0" d="M1687 1034l67 -344 132 0c20,0 38,3 52,10 16,8 28,19 37,34 9,15 13,33 13,53 0,29 -7,54 -22,78 -14,23 -33,40 -57,51 -16,8 -34,11 -53,11l-64 0 -21 107 -84 0zm119 -179l41 0c12,0 21,-2 28,-7 18,-12 26,-29 26,-53 0,-10 -3,-18 -8,-24 -6,-6 -15,-9 -26,-9l-43 0 -18 93z"/>
   <path class="fil0" d="M1983 1034l67 -344 131 0c21,0 38,3 52,10 17,8 29,19 38,34 8,15 13,33 13,53 0,29 -8,54 -22,78 -15,23 -34,40 -57,51 -17,8 -34,11 -53,11l-64 0 -21 107 -84 0zm119 -179l40 0c12,0 22,-2 29,-7 17,-12 26,-29 26,-53 0,-10 -3,-18 -9,-24 -6,-6 -15,-9 -26,-9l-42 0 -18 93z"/>
   <polygon class="fil0" points="2276,1034 2343,690 2427,690 2374,962 2515,962 2500,1034 "/>
   <path class="fil0" d="M2541 1034l179 -344 97 0 48 344 -84 0 -7 -72 -108 0 -35 72 -90 0zm158 -140l69 0 -11 -120c-24,49 -37,76 -58,120z"/>
   <path class="fil0" d="M2906 1034l67 -344 81 0 64 160 14 35 4 10c14,-72 26,-134 40,-205l84 0 -67 344 -81 0c-28,-69 -55,-137 -82,-206 -14,71 -26,135 -40,206l-84 0z"/>
   <path class="fil0" d="M3266 918c17,15 36,24 58,33 14,5 29,8 43,8 10,0 19,-3 27,-7 9,-5 13,-12 13,-22 0,-14 -22,-26 -33,-31 -9,-4 -19,-9 -29,-16 -11,-7 -21,-13 -30,-21 -9,-7 -17,-17 -23,-29 -6,-12 -10,-25 -10,-39 0,-32 13,-57 38,-76 25,-19 53,-28 86,-28 47,0 78,12 103,29l-15 79c-13,-11 -27,-18 -50,-26 -13,-5 -26,-7 -39,-7 -10,0 -19,2 -28,7 -9,5 -13,12 -13,22 0,5 3,11 9,16 7,5 14,10 24,14 9,5 19,10 30,16 10,7 20,14 30,21 9,7 17,17 23,29 6,12 9,25 9,40 0,28 -11,53 -35,73 -24,21 -53,31 -89,31 -23,0 -47,-4 -70,-12 -17,-6 -32,-15 -44,-25 0,0 0,0 0,-1l15 -78z"/>
   <path class="fil1" d="M1345 730c-109,-212 -353,-564 -826,-718 -107,-34 -219,6 -280,100 -129,199 -312,586 -209,1072 24,110 115,187 227,193 236,12 664,-22 1033,-355 84,-75 106,-193 55,-292z"/>
   <path class="fil2" d="M1824 534l-13 70 -30 0 42 -216 27 0 -2 13 -3 12 0 0c6,-8 14,-15 23,-20 9,-6 20,-9 31,-9 18,0 32,6 43,18 10,11 15,26 15,46 0,28 -8,52 -25,70 -17,19 -37,28 -59,28 -10,0 -20,-2 -28,-7 -8,-4 -14,-11 -18,-20l-1 0c0,5 -1,9 -2,15zm11 -53c0,12 3,21 9,28 6,8 15,12 26,12 14,0 27,-7 39,-20 12,-13 18,-30 18,-51 0,-12 -3,-22 -9,-29 -7,-7 -15,-11 -26,-11 -16,0 -29,8 -40,22 -11,14 -17,31 -17,49zm136 26c0,-10 3,-18 7,-25 5,-8 10,-13 17,-18 7,-4 15,-8 25,-10 9,-3 18,-5 27,-6 9,-1 17,-2 27,-2l8 0c0,-4 1,-8 1,-13 0,-16 -10,-23 -28,-23 -16,0 -31,4 -46,14l-8 -23c6,-5 15,-8 25,-12 11,-3 22,-5 33,-5 16,0 29,4 39,11 10,8 15,19 15,35 0,4 -1,9 -2,16l-18 97 -28 0 3 -16 3 -12 -1 0c-4,7 -11,14 -20,21 -10,7 -21,10 -33,10 -13,0 -24,-3 -32,-10 -9,-8 -14,-17 -14,-29zm30 -5c0,6 2,11 6,15 4,4 10,6 19,6 11,0 22,-5 32,-16 10,-10 16,-21 19,-34l1 -5 -8 0c-46,0 -69,11 -69,34zm125 22l14 -19c5,5 10,9 17,12 7,4 15,5 23,5 9,0 18,-2 25,-8 7,-5 11,-13 11,-22 0,-12 -9,-18 -27,-18l-19 0 4 -22 17 0c9,0 17,-2 24,-7 6,-4 10,-11 10,-20 0,-11 -9,-17 -25,-17 -13,0 -26,4 -39,13l-9 -20c15,-11 33,-17 54,-17 15,0 27,4 35,10 9,7 14,16 14,27 0,10 -3,18 -8,25 -5,7 -13,13 -22,16l0 1c14,5 21,15 21,31 0,16 -6,28 -19,38 -12,9 -28,14 -45,14 -11,0 -22,-2 -32,-6 -10,-4 -18,-9 -24,-16zm178 10l-14 70 -29 0 42 -216 27 0 -2 13 -4 12 1 0c6,-8 13,-15 23,-20 9,-6 19,-9 31,-9 18,0 32,6 42,18 11,11 16,26 16,46 0,28 -9,52 -26,70 -16,19 -36,28 -58,28 -11,0 -20,-2 -28,-7 -9,-4 -15,-11 -19,-20l0 0c0,5 -1,9 -2,15zm11 -53c0,12 3,21 9,28 6,8 14,12 26,12 14,0 27,-7 39,-20 12,-13 18,-30 18,-51 0,-12 -4,-22 -10,-29 -6,-7 -15,-11 -26,-11 -15,0 -28,8 -39,22 -11,14 -17,31 -17,49zm136 26c0,-10 2,-18 7,-25 4,-8 10,-13 17,-18 7,-4 15,-8 24,-10 10,-3 19,-5 28,-6 8,-1 17,-2 26,-2l8 0c1,-4 2,-8 2,-13 0,-16 -10,-23 -29,-23 -15,0 -30,4 -46,14l-8 -23c7,-5 15,-8 26,-12 11,-3 22,-5 33,-5 16,0 29,4 38,11 10,8 15,19 15,35 0,4 0,9 -1,16l-19 97 -27 0 3 -16 3 -12 -1 0c-4,7 -11,14 -21,21 -9,7 -20,10 -32,10 -13,0 -24,-3 -33,-10 -8,-8 -13,-17 -13,-29zm29 -5c0,6 3,11 7,15 4,4 10,6 18,6 12,0 23,-5 33,-16 9,-10 16,-21 18,-34l1 -5 -7 0c-46,0 -70,11 -70,34zm144 -26c0,-14 2,-28 6,-43 3,-15 9,-28 17,-39 7,-12 16,-22 28,-30 11,-8 25,-16 42,-22l60 -23 6 24 -65 25c-17,7 -30,15 -39,24 -9,10 -15,21 -19,36l0 0c16,-17 34,-26 56,-26 17,0 31,5 42,15 10,11 15,25 15,42 0,23 -8,44 -24,61 -17,18 -37,26 -63,26 -21,0 -36,-6 -47,-19 -10,-12 -15,-29 -15,-51zm29 8c0,12 3,21 10,27 7,7 15,10 26,10 15,0 28,-6 38,-17 11,-12 16,-26 16,-41 0,-12 -3,-21 -10,-27 -6,-7 -15,-10 -25,-10 -15,0 -27,6 -38,17 -11,12 -17,26 -17,41zm146 -6c0,-26 10,-48 29,-66 19,-18 41,-28 66,-28 22,0 40,7 53,19 14,13 21,29 21,49 0,26 -10,48 -30,67 -19,18 -41,27 -66,27 -21,0 -39,-6 -53,-19 -13,-12 -20,-28 -20,-49zm30 -1c0,13 4,24 12,32 8,8 19,12 32,12 16,0 31,-7 44,-20 14,-13 20,-29 20,-48 0,-12 -4,-23 -12,-31 -8,-8 -18,-12 -31,-12 -17,0 -32,7 -45,20 -13,13 -20,28 -20,47zm188 66l25 -130 -54 0 5 -25 137 0 -5 25 -53 0 -25 130 -30 0zm112 0l30 -155 30 0 -12 62 21 0 53 -62 35 0 -66 77 0 1 42 77 -33 0 -35 -67 -22 0 -13 67 -30 0zm152 -36c0,-10 2,-18 7,-25 4,-8 10,-13 17,-18 7,-4 15,-8 24,-10 10,-3 19,-5 28,-6 8,-1 17,-2 26,-2l8 0c1,-4 2,-8 2,-13 0,-16 -10,-23 -28,-23 -16,0 -31,4 -47,14l-7 -23c6,-5 14,-8 25,-12 11,-3 22,-5 33,-5 16,0 29,4 39,11 10,8 15,19 15,35 0,4 -1,9 -2,16l-19 97 -27 0 3 -16 3 -12 -1 0c-4,7 -11,14 -21,21 -9,7 -20,10 -32,10 -13,0 -24,-3 -33,-10 -8,-8 -13,-17 -13,-29zm30 -5c0,6 2,11 6,15 4,4 10,6 19,6 11,0 22,-5 32,-16 9,-10 16,-21 19,-34l0 -5 -7 0c-46,0 -69,11 -69,34zm215 -23c0,-26 10,-48 29,-67 19,-18 41,-28 67,-28 25,0 44,8 58,23l-17 19c-4,-5 -10,-9 -18,-12 -7,-2 -15,-4 -22,-4 -18,0 -33,7 -47,20 -13,13 -19,29 -19,47 0,13 4,24 12,32 8,8 19,12 33,12 17,0 35,-7 51,-21l9 23c-8,7 -17,13 -29,17 -11,4 -23,6 -34,6 -22,0 -40,-6 -53,-18 -13,-13 -20,-29 -20,-49zm157 28c0,-10 2,-18 7,-25 4,-8 10,-13 17,-18 7,-4 15,-8 24,-10 9,-3 18,-5 27,-6 9,-1 18,-2 27,-2l8 0c1,-4 1,-8 1,-13 0,-16 -9,-23 -28,-23 -15,0 -31,4 -46,14l-8 -23c6,-5 15,-8 26,-12 11,-3 22,-5 32,-5 16,0 29,4 39,11 10,8 15,19 15,35 0,4 0,9 -1,16l-19 97 -28 0 3 -16 3 -12 0 0c-5,7 -11,14 -21,21 -10,7 -20,10 -33,10 -12,0 -23,-3 -32,-10 -9,-8 -13,-17 -13,-29zm29 -5c0,6 2,11 6,15 5,4 11,6 19,6 12,0 22,-5 32,-16 10,-10 16,-21 19,-34l1 -5 -8 0c-46,0 -69,11 -69,34zm242 -132c-12,0 -22,-3 -29,-9 -8,-6 -12,-13 -12,-23 0,-3 1,-7 2,-11l23 0c0,2 -1,5 -1,8 0,5 2,9 5,12 4,3 8,4 13,4 7,0 12,-2 17,-6 5,-3 8,-10 9,-18l24 0c-2,15 -8,26 -18,33 -9,7 -20,10 -33,10zm-106 173l30 -155 28 0 -18 91 -5 21 1 0c6,-9 12,-16 18,-22l84 -90 29 0 -30 155 -28 0 17 -91 5 -21 0 0c-7,8 -13,15 -18,22l-85 90 -28 0zm219 0l25 -130 -53 0 5 -25 137 0 -5 25 -54 0 -25 130 -30 0zm106 -36c0,-10 3,-18 7,-25 4,-8 10,-13 17,-18 7,-4 15,-8 25,-10 9,-3 18,-5 27,-6 8,-1 17,-2 27,-2l7 0c1,-4 2,-8 2,-13 0,-16 -10,-23 -28,-23 -16,0 -31,4 -46,14l-8 -23c6,-5 14,-8 25,-12 11,-3 22,-5 33,-5 16,0 29,4 39,11 10,8 15,19 15,35 0,4 -1,9 -2,16l-19 97 -27 0 3 -16 3 -12 -1 0c-4,7 -11,14 -21,21 -9,7 -20,10 -32,10 -13,0 -24,-3 -33,-10 -8,-8 -13,-17 -13,-29zm30 -5c0,6 2,11 6,15 4,4 10,6 19,6 11,0 22,-5 32,-16 9,-10 16,-21 19,-34l0 -5 -7 0c-46,0 -69,11 -69,34z"/>
   <polygon class="fil3" points="442,346 382,1034 668,906 "/>
   <polygon class="fil4" points="668,906 990,869 442,346 "/>
   <path class="fil0" d="M3518 1032l14 -77 78 0 -14 77 -78 0zm122 0l66 -339 127 0c19,0 36,3 49,8 34,14 51,40 51,78 0,23 -6,46 -17,68 -12,22 -30,37 -54,47l0 1c3,4 5,10 9,20l44 117 -90 0 -38 -114 -41 0 -23 114 -83 0zm119 -185l36 0c15,0 28,-5 38,-14 10,-9 15,-22 15,-38 0,-10 -3,-18 -10,-23 -6,-5 -14,-8 -25,-8l-37 0 -17 83zm190 86c0,-9 1,-18 3,-28l41 -212 83 0 -42 215c-1,4 -1,9 -1,13 0,13 4,23 13,31 9,7 21,10 37,10 18,0 33,-4 46,-14 12,-9 20,-23 23,-40l42 -215 83 0 -42 217c-8,39 -26,70 -53,93 -28,23 -62,35 -102,35 -37,0 -69,-9 -94,-28 -25,-19 -37,-44 -37,-77z"/>
  </g>
 </g>
</svg>
